Coordinates
version=1
nRows=16
nColumns=36
inDegrees=yes

Units are S.I. units (second, meters, Newtons, ...)
If the header above contains a line with 'inDegrees', this indicates whether rotational values are in degrees (yes) or radians (no).

endheader
time	pelvis_tilt	pelvis_list	pelvis_rotation	pelvis_tx	pelvis_ty	pelvis_tz	hip_flexion_r	hip_adduction_r	hip_rotation_r	knee_angle_r	knee_angle_r_beta	ankle_angle_r	subtalar_angle_r	mtp_angle_r	hip_flexion_l	hip_adduction_l	hip_rotation_l	knee_angle_l	knee_angle_l_beta	ankle_angle_l	subtalar_angle_l	mtp_angle_l	lumbar_extension	lumbar_bending	lumbar_rotation	arm_flex_r	arm_add_r	arm_rot_r	elbow_flex_r	pro_sup_r	arm_flex_l	arm_add_l	arm_rot_l	elbow_flex_l	pro_sup_l
      3.71666670	    -39.45017162	      4.18301235	     -2.97567476	     -0.16359240	      0.56563561	      0.02018038	    115.44591338	     -9.88188771	      5.73138753	    103.52698100	      1.80688668	     37.11355199	      6.90754471	     -7.49999987	    114.04830595	     -8.50578134	      0.33007540	    105.82519118	      1.84699802	     38.82588236	      1.16737343	     -7.49999987	    -29.35263632	     -3.42223911	      1.83302138	    134.91703463	      1.93650554	     76.65426839	    124.92416535	     63.33698743	    127.65056509	     -0.52618486	     71.12289403	    114.53243841	     65.74830951
      3.73333330	    -39.47959047	      4.29864629	     -3.08999902	     -0.16773144	      0.56352796	      0.02171773	    115.73082320	     -9.70172801	      5.85498890	    103.78461634	      1.81138327	     36.99520758	      6.60759034	     -7.49999987	    114.26745682	     -8.70971724	      0.29157491	    106.06031229	      1.85110166	     38.87971292	      1.26286302	     -7.49999987	    -29.47483626	     -3.69784347	      1.62681483	    134.86594749	      1.97645794	     76.45238603	    124.52779855	     63.32381574	    128.04922063	     -0.72396560	     70.56629445	    114.22401750	     65.87265684
      3.75000000	    -39.33619978	      4.31989540	     -3.04041408	     -0.16688490	      0.56077211	      0.02306316	    115.94944395	     -9.62006158	      6.02019897	    104.29004964	      1.82020474	     36.82038843	      6.26295724	     -7.49999987	    114.37294975	     -8.83108847	      0.36416742	    106.37328342	      1.85656403	     39.03230219	      1.65156513	     -7.49999987	    -29.76532581	     -3.74208555	      1.45026893	    134.94507696	      2.08384353	     76.28203236	    124.28331480	     62.76236257	    128.12036262	     -0.81647948	     70.69370161	    114.35843514	     65.15715271
      3.76666670	    -39.30078642	      4.45763687	     -2.98738162	     -0.16294537	      0.55687467	      0.02356271	    116.27626442	     -9.47476180	      6.30075576	    104.86548910	      1.83024806	     37.02405698	      6.28593564	     -7.49999987	    114.60532319	     -9.01781187	      0.28088560	    106.87153956	      1.86526024	     39.23521573	      1.86766095	     -7.49999987	    -29.72995502	     -3.93580881	      1.26758618	    134.73304391	      2.25076672	     75.89096564	    124.04587373	     62.82420049	    128.05267820	     -1.08466655	     70.02317753	    114.31675589	     65.53487377
      3.78333330	    -39.29121213	      4.61858850	     -3.01172560	     -0.16091618	      0.55908751	      0.02358424	    116.31138940	     -9.32068181	      6.52049404	    105.11827616	      1.83466002	     37.07801875	      5.97620374	     -7.49999987	    114.47195691	     -9.22626342	      0.10463042	    107.00497839	      1.86758919	     39.26960685	      1.91128902	     -7.49999987	    -29.64845858	     -4.10680408	      1.03160004	    134.10309669	      2.45714342	     75.76980399	    123.95144856	     64.46554934	    127.50156938	     -1.38569844	     68.89342989	    114.26294373	     69.93424160
      3.80000000	    -39.29940108	      4.71823201	     -2.98274093	     -0.15924161	      0.55949157	      0.02538563	    116.31187427	     -9.23533365	      6.59523104	    105.28848640	      1.83763075	     37.06933911	      5.53323071	     -7.49999987	    114.23736501	     -9.39240699	      0.00244432	    107.04783355	      1.86833715	     39.38838463	      2.02561258	     -7.49999987	    -29.69290152	     -4.31714914	      0.84950992	    133.51192268	      2.66106161	     75.94053207	    124.00204666	     63.79084984	    127.02801152	     -1.65619145	     68.16140429	    114.52143015	     67.92354011
      3.81666670	    -39.27661181	      4.81993374	     -3.00994864	     -0.15962106	      0.55764972	      0.02622459	    116.32868224	     -9.10974957	      6.66165841	    105.49931876	      1.84131047	     37.12591752	      5.34622650	     -7.49999987	    114.16362131	     -9.61727364	     -0.07870205	    107.19933405	      1.87098134	     39.46579097	      2.22177598	     -7.49999987	    -29.71251245	     -4.49242030	      0.69440138	    133.16740174	      2.85123132	     75.83953932	    123.75771530	     65.28441390	    126.79212558	     -2.03392375	     67.49254147	    114.28233533	     70.01519116
      3.83333330	    -39.26302615	      4.92096512	     -2.99812149	     -0.15808709	      0.55583016	      0.02546517	    116.46498572	     -9.08155305	      6.77145005	    105.84333667	      1.84731472	     37.19169505	      5.26445303	     -7.49999987	    114.16864864	     -9.71356773	     -0.14804275	    107.41039135	      1.87466498	     39.61463186	      2.33402128	     -7.49999987	    -29.59446596	     -4.63148081	      0.68874658	    132.81947813	      2.77983086	     76.03791293	    123.98717090	     64.24111669	    126.21597716	     -1.98010942	     67.37765557	    114.26029824	     67.67939159
      3.85000000	    -39.21010827	      4.98829244	     -3.01580647	     -0.15575068	      0.55513069	      0.02540752	    116.55156621	     -9.04820258	      6.87414153	    106.18561647	      1.85328863	     37.19780849	      5.05598114	     -7.49999987	    114.13235458	     -9.82044160	     -0.19167139	    107.63983730	      1.87866957	     39.85250343	      2.60481649	     -7.49999987	    -29.58707214	     -4.75384325	      0.60489423	    132.65212061	      2.83916308	     76.07886573	    124.20845567	     63.90455944	    126.11812033	     -1.84129567	     68.03248025	    114.53295957	     66.81832449
      3.86666670	    -39.19374602	      5.08836145	     -2.99696560	     -0.15578949	      0.55503404	      0.02486307	    116.64888497	     -9.08409946	      7.03555148	    106.39939038	      1.85701968	     37.13670661	      4.99077730	     -7.49999987	    114.08467670	     -9.82593594	     -0.29683289	    107.81389924	      1.88170752	     39.97505645	      2.60927624	     -7.49999987	    -29.49120707	     -4.83326110	      0.68973872	    132.53491254	      2.74761882	     76.38156626	    124.38755625	     63.63456261	    125.83188000	     -1.48942936	     68.85459006	    114.70255506	     66.25249607
      3.88333330	    -39.23974711	      5.09571762	     -3.01637235	     -0.16060147	      0.55451229	      0.02546547	    116.85590145	     -9.03455859	      7.01638825	    106.32985030	      1.85580598	     37.02185836	      4.95153118	     -7.49999987	    114.20496454	     -9.84448640	     -0.29954526	    107.78310918	      1.88117013	     39.95582977	      2.57726962	     -7.49999987	    -29.50102692	     -4.92481919	      0.56903767	    132.77373554	      2.44515025	     76.14812764	    124.11008423	     63.66426923	    126.50411383	     -1.75141246	     68.25430048	    114.40405315	     66.33232969
      3.90000000	    -39.09610532	      5.13559073	     -3.06759121	     -0.15747277	      0.55226080	      0.02407592	    116.97641891	     -9.06680420	      7.11009576	    106.58569610	      1.86027133	     36.99221701	      4.87562585	     -7.49999987	    114.26294565	     -9.82134060	     -0.23842222	    108.04438420	      1.88573024	     39.94341195	      2.53473429	     -7.49999987	    -29.57636845	     -4.94015075	      0.50118803	    132.98982545	      2.47652168	     76.00504339	    124.08238512	     63.68548227	    126.55040802	     -1.57709688	     68.18752213	    114.46582402	     66.39109597
      3.91666670	    -38.92113655	      5.24484232	     -3.05507632	     -0.15701087	      0.55288024	      0.02599466	    116.86164940	     -8.99766671	      7.25125142	    106.57248912	      1.86004083	     36.95586017	      4.70230004	     -7.49999987	    114.08761688	     -9.83323722	     -0.34570634	    108.10634768	      1.88681171	     39.97109870	      2.48103525	     -7.49999987	    -30.04568338	     -5.13354576	      0.41314731	    133.75616541	      2.56618249	     75.40393645	    124.07448683	     65.83156484	    127.18119964	     -1.46607658	     67.33987858	    114.24786440	     71.55970827
      3.93333330	    -38.97792600	      5.29543802	     -3.08048053	     -0.15594587	      0.55289414	      0.02591762	    116.89256978	     -8.94533555	      7.28785248	    106.59172554	      1.86037657	     37.05534234	      4.72187408	     -7.49999987	    114.13481544	     -9.85355926	     -0.31435960	    108.15909444	      1.88773231	     40.10674839	      2.58609812	     -7.49999987	    -29.98772948	     -5.20809051	      0.32580237	    133.93006757	      2.58833376	     75.51595764	    124.11112823	     64.86426030	    127.29441150	     -1.52690587	     67.22900356	    114.18729056	     69.24816401
      3.95000000	    -39.03173343	      5.30313257	     -3.06887984	     -0.15554953	      0.55211941	      0.02580243	    116.94192429	     -8.95296517	      7.30131485	    106.66204921	      1.86160395	     37.15394142	      4.80194029	     -7.49999987	    114.21956207	     -9.82452154	     -0.27548788	    108.23926699	      1.88913159	     40.28462372	      2.71975639	     -7.49999987	    -29.93519516	     -5.17933720	      0.28509862	    134.16805478	      2.65472030	     75.47159152	    124.19077277	     63.95766350	    127.40576681	     -1.60601165	     66.73301065	    114.32980235	     67.18949848
      3.96666670	    -38.84807307	      5.26220963	     -3.03982602	     -0.15452617	      0.55312188	      0.02546242	    116.66756540	     -9.01198109	      7.31594252	    106.67643189	      1.86185497	     37.26990430	      5.03196261	     -7.49999987	    114.00990683	     -9.70466689	     -0.25294085	    108.27423269	      1.88974186	     40.29782824	      2.58934004	     -7.49999987	    -30.45253233	     -5.05262108	      0.20589818	    135.02547085	      2.70971350	     75.01991980	    124.21018837	     63.66422856	    128.09038261	     -1.68705986	     65.71243271	    114.39361929	     66.42492190
